<svg width="118" height="32" viewBox="0 0 118 32" fill="none" xmlns="http://www.w3.org/2000/svg">
<path d="M91.1885 5.48222L96.1378 9.29731L96.1213 14.5188L100.143 11.873L104.007 14.6013L112.686 1L91.1885 5.48222ZM98.4609 10.5594L97.0513 12.9309L97.0575 8.93951L109.964 2.72504L98.4609 10.5594Z" fill="#00A5EC"/>
<path d="M1 19.8433H3.21997V30.9957H1V19.8433Z" fill="#00A5EC"/>
<path d="M5.45605 30.9962V19.853H6.20154L13.1832 26.8326V19.853H15.4103V30.9962H14.5947L7.68634 24.0878V30.9962H5.45605Z" fill="#00A5EC"/>
<path d="M26.8154 19.853V21.9328H23.1034V30.9952H20.8721V21.9328H17.1602V19.853H26.8154Z" fill="#00A5EC"/>
<path d="M28.4414 30.9958V19.8599H36.6315V21.9396H30.6717V24.3111H35.1395V26.3847H30.6717V28.9171H36.615V30.9989L28.4414 30.9958Z" fill="#00A5EC"/>
<path d="M45.5825 26.1345L48.3582 30.9952H45.8052L43.1346 26.3882H41.1002V30.9952H38.873V19.853H43.7306C46.331 19.853 47.6309 20.9219 47.6302 23.0598C47.7033 23.731 47.5383 24.4066 47.1641 24.9686C46.7898 25.5306 46.23 25.9432 45.5825 26.1345ZM41.1002 24.3084H44.2235C45.1185 24.2919 45.5814 23.8847 45.6031 23.0835C45.5825 22.3493 45.1267 21.9699 44.2441 21.9379H41.1002V24.3095V24.3084Z" fill="#00A5EC"/>
<path d="M49.5205 30.9962V19.853H50.2598L57.2466 26.8326V19.853H59.4738V30.9962H58.6551L51.7467 24.0878V30.9962H49.5205Z" fill="#00A5EC"/>
<path fill-rule="evenodd" clip-rule="evenodd" d="M79.2275 18.5012C84.5615 17.7279 89.5933 15.8832 94.788 14.1582C93.1795 15.4491 81.1671 18.8219 79.2275 18.5012Z" fill="#666666"/>
<path fill-rule="evenodd" clip-rule="evenodd" d="M100.139 11.873L96.1172 14.5189L98.4599 10.5625L100.139 11.873Z" fill="#666666"/>
<path d="M67.8185 20.2238C68.4154 20.4912 68.9566 20.8686 69.4137 21.3364L67.9309 22.8243C67.6755 22.5256 67.3545 22.2898 66.9931 22.1353C66.6317 21.9808 66.2395 21.9117 65.8471 21.9334C64.9572 21.9334 64.387 22.1396 64.1406 22.5634C64.0192 22.7168 63.9532 22.9066 63.9532 23.1022C63.9532 23.2977 64.0192 23.4876 64.1406 23.6409C64.6223 24.0423 65.2209 24.2771 65.8471 24.3101C66.7657 24.3999 67.6472 24.719 68.4104 25.2381C68.8006 25.5181 69.1117 25.8943 69.3135 26.3301C69.5153 26.7659 69.601 27.2465 69.5621 27.7251C69.5549 28.1787 69.4398 28.6241 69.2264 29.0244C69.0131 29.4248 68.7076 29.7686 68.3351 30.0276C67.5192 30.6691 66.5074 31.0103 65.4697 30.9938C64.5847 31.0207 63.7034 30.8688 62.8785 30.5473C62.2129 30.2702 61.6074 29.8664 61.0957 29.3584L62.5754 27.8767C62.9056 28.2098 63.2991 28.4736 63.7328 28.6524C64.1664 28.8313 64.6315 28.9216 65.1005 28.9181C66.0925 28.9181 66.708 28.7119 66.9565 28.2881C67.0768 28.0993 67.1407 27.88 67.1407 27.6561C67.1407 27.4321 67.0768 27.2129 66.9565 27.024C66.7091 26.6043 66.0956 26.3424 65.1005 26.2434C64.2342 26.1527 63.3981 25.874 62.6506 25.4268C62.2719 25.1818 61.9678 24.8375 61.7714 24.4315C61.575 24.0255 61.494 23.5733 61.537 23.1243C61.5295 22.6542 61.6417 22.1899 61.863 21.775C62.0843 21.3602 62.4075 21.0084 62.8022 20.7528C63.5551 20.1883 64.4669 19.8758 65.4078 19.8599C66.2275 19.8215 67.0467 19.9451 67.8185 20.2238Z" fill="#666666"/>
<path d="M71.5537 30.9972V19.854H73.784V24.3094H78.9766V19.8447H81.21V30.9869L78.9766 30.9972V26.3902H73.784V30.9972H71.5537Z" fill="#666666"/>
<path d="M83.0215 30.9972L87.4759 19.854H89.7061L94.1564 30.9899L91.7848 31.0003L91.1157 29.2927H86.0632L85.3941 31.0003L83.0215 30.9972ZM88.6513 22.8246L86.9562 27.0604H90.299L88.6513 22.8246Z" fill="#666666"/>
<path d="M98.0769 19.854V28.9154H104.02V30.9972H95.8477V19.854H98.0769Z" fill="#666666"/>
<path d="M105.268 30.9972L109.728 19.854H111.955L116.405 30.9899L114.033 31.0003L113.372 29.2896H108.32L107.652 30.9972H105.268ZM110.897 22.8246L109.203 27.0604H112.547L110.897 22.8246Z" fill="#666666"/>
</svg>
