<?xml version="1.0" encoding="iso-8859-1"?>
<!-- Generator: Adobe Illustrator 19.0.0, SVG Export Plug-In . SVG Version: 6.00 Build 0)  -->
<svg version="1.1" id="Capa_1" xmlns="http://www.w3.org/2000/svg" xmlns:xlink="http://www.w3.org/1999/xlink" x="0px" y="0px"
	 viewBox="0 0 512.001 512.001" style="enable-background:new 0 0 512.001 512.001;" xml:space="preserve">
<g>
	<g>
		<path d="M457.26,126.02H345.075V69.268c0-8.894-7.21-16.104-16.104-16.104H183.029c-8.894,0-16.104,7.21-16.104,16.104v56.752
			H54.741C24.557,126.02,0,150.577,0,180.76v223.337c0,30.183,24.557,54.74,54.741,54.74H457.26
			c30.184,0,54.741-24.557,54.741-54.74V180.76C512,150.577,487.443,126.02,457.26,126.02z M199.133,85.373h113.733v40.648H199.133
			V85.373z M89.054,426.63H54.741c-12.425,0-22.533-10.108-22.533-22.532V180.76c0-12.424,10.108-22.532,22.533-22.532h34.313
			V426.63z M390.737,426.63H121.263V158.228h269.475V426.63z M479.792,404.098c0,12.424-10.108,22.532-22.533,22.532h-34.313
			V158.228h34.313c12.425,0,22.533,10.108,22.533,22.532V404.098z"/>
	</g>
</g>
<g>
</g>
<g>
</g>
<g>
</g>
<g>
</g>
<g>
</g>
<g>
</g>
<g>
</g>
<g>
</g>
<g>
</g>
<g>
</g>
<g>
</g>
<g>
</g>
<g>
</g>
<g>
</g>
<g>
</g>
</svg>
