<svg id="Layer_3" enable-background="new 0 0 64 64" height="512" viewBox="0 0 64 64" width="512" xmlns="http://www.w3.org/2000/svg"><g><path d="m51 32 11-11-19-19-30 30" fill="#78b75b"/><path d="m22 32c0-2.559.976-5.118 2.929-7.071 3.905-3.905 10.237-3.905 14.142 0 1.953 1.953 2.929 4.512 2.929 7.071" fill="#669e4f"/><path d="m38.827 33.414c0-1.068-.416-2.073-1.172-2.829-1.51-1.511-4.146-1.511-5.655 0l-2.829-2.829c.781-.779 2.048-.778 2.829.001l1.413-1.415c-1.558-1.558-4.096-1.559-5.656 0l-.707-.707-1.415 1.415.708.708c-.756.755-1.171 1.759-1.171 2.828-.001 1.068.416 2.073 1.172 2.829.755.755 1.76 1.171 2.828 1.171s2.072-.416 2.827-1.171l2.829 2.829c-.781.779-2.048.778-2.829-.001l-1.413 1.415c.779.779 1.804 1.169 2.828 1.169s2.048-.39 2.828-1.169l.707.707 1.415-1.415-.708-.708c.755-.756 1.171-1.76 1.171-2.828zm-8.243-1.414c-.754.755-2.073.755-2.827 0-.378-.378-.587-.88-.586-1.414 0-.534.208-1.036.585-1.414zm2.83-.001c.754-.755 2.073-.755 2.827 0 .378.378.586.88.586 1.414s-.208 1.036-.585 1.414z" fill="#78b75b"/><g><path d="m48.222 29.92-1.415-1.415 7.778-7.778-11.314-11.313-7.778 7.778-1.415-1.415 8.485-8.485c.391-.39 1.024-.391 1.415 0l12.729 12.728c.188.188.292.442.292.707 0 .266-.104.52-.292.708z" fill="#669e4f"/></g><g><path d="m44.392 24.677h2v2h-2z" fill="#96cc7f" transform="matrix(.707 -.708 .708 .707 -4.854 39.644)"/></g><g><path d="m47.221 21.848h2v2.001h-2z" fill="#96cc7f" transform="matrix(.707 -.707 .707 .707 -2.03 40.799)"/></g><g><path d="m37.321 17.606h2v1.999h-2z" fill="#96cc7f" transform="matrix(.708 -.707 .707 .708 -1.94 32.526)"/></g><g><path d="m40.15 14.777h2v2.001h-2z" fill="#96cc7f" transform="matrix(.707 -.707 .707 .707 .899 33.726)"/></g><path d="m2 32h60v26h-60z" fill="#96cc7f"/><circle cx="32" cy="45" fill="#78b75b" r="10"/><path d="m17 58 4 4 4-4" fill="#78b75b"/><path d="m33 44h-.002v-4h.002c1.102 0 1.998.897 1.998 2h2c0-2.206-1.794-4-3.998-4h-.002v-1h-1.999v1c-2.206 0-4 1.794-4 4 0 2.205 1.794 3.999 4 3.999v4c-1.104 0-2-.897-2-2l-2 .001c0 2.205 1.794 3.999 4 3.999v1h1.999v-1h.002c2.204 0 3.998-1.794 3.998-4s-1.794-3.999-3.998-3.999zm-4.001-2c0-1.103.896-2 2-2v4c-1.103 0-2-.898-2-2zm4.001 7.999h-.002v-4h.002c1.102 0 1.998.897 1.998 2.001 0 1.102-.896 1.999-1.998 1.999z" fill="#669e4f"/><g><path d="m57.998 54.999h-11.999v-2h10.999v-15.999h-10.999v-2h11.999c.553 0 1 .447 1 1v18c0 .552-.447.999-1 .999z" fill="#669e4f"/></g><g><path d="m17.999 55h-11.999c-.553 0-1-.448-1-1v-18c0-.553.447-1 .999-1h12l.001 2h-11v16h10.999z" fill="#669e4f"/></g><g><path d="m45.999 49h1.999v2h-1.999z" fill="#78b75b"/></g><g><path d="m49.999 49h1.999v2h-1.999z" fill="#78b75b"/></g><g><path d="m45.999 39h1.999v2h-1.999z" fill="#78b75b"/></g><g><path d="m49.999 39h1.999v2h-1.999z" fill="#78b75b"/></g><g><path d="m12 39h1.999v2h-1.999z" fill="#78b75b"/></g><g><path d="m16 39h1.999v2h-1.999z" fill="#78b75b"/></g><g><path d="m12 49h1.999v2h-1.999z" fill="#78b75b"/></g><g><path d="m16 49h1.999v2h-1.999z" fill="#78b75b"/></g></g></svg>