<svg id="Capa_1" enable-background="new 0 0 512 512" height="512" viewBox="0 0 512 512" width="512" xmlns="http://www.w3.org/2000/svg"><g><path d="m353.991 511c-27.582 0-51.516-17.688-58.204-44.447l-39.787-159.155-39.787 159.156c-6.689 26.758-30.623 45.446-58.203 45.446-27.581 0-51.515-18.688-58.203-45.446l-97.991-391.98c-3.887-15.547-1.487-31.677 6.758-45.42 8.245-13.741 21.348-23.45 36.894-27.337 15.546-3.889 31.677-1.489 45.419 6.758 13.74 8.245 23.448 21.349 27.336 36.896l39.787 159.156 39.787-159.156c6.689-26.758 30.623-45.457 58.203-45.457 27.581 0 51.514 18.699 58.203 45.457l39.788 159.156 39.787-159.156c3.887-15.547 13.594-28.65 27.335-36.895 13.74-8.246 29.872-10.647 45.419-6.759 15.547 3.887 28.65 13.596 36.895 27.338s10.645 29.873 6.757 45.42l-97.99 391.98c-6.689 26.757-30.622 44.445-58.203 44.445zm-97.991-280.447c6.882 0 12.882 4.684 14.551 11.361l54.339 217.364c3.345 13.379 15.311 22.723 29.101 22.723 13.789 0 25.756-9.344 29.101-22.723l97.99-391.979c1.943-7.774.743-15.839-3.379-22.71-4.123-6.871-10.673-11.725-18.446-13.669-7.772-1.943-15.837-.744-22.709 3.379-6.871 4.122-11.725 10.674-13.668 18.447l-54.338 217.364c-1.669 6.678-7.669 11.362-14.551 11.362s-12.882-4.684-14.551-11.362l-54.339-217.363c-3.344-13.379-15.312-22.723-29.101-22.723s-25.756 9.344-29.101 22.723l-54.338 217.364c-1.669 6.677-7.669 11.362-14.551 11.362s-12.882-4.684-14.551-11.362l-54.339-217.364c-1.944-7.774-6.798-14.326-13.668-18.449-6.87-4.121-14.933-5.321-22.706-3.378-7.774 1.944-14.325 6.798-18.448 13.669s-5.322 14.936-3.379 22.709l97.99 391.98c3.344 13.379 15.311 22.723 29.101 22.723s25.756-9.344 29.101-22.723l54.338-217.364c1.669-6.677 7.668-11.361 14.551-11.361z"/></g></svg>